<svg width="1408" height="288" viewBox="0 0 1408 288" fill="none" xmlns="http://www.w3.org/2000/svg">
<path d="M88.1096 288C86.2049 288 84.6607 286.454 84.6607 284.547V132.383C84.6607 131.398 85.081 130.46 85.8158 129.804L133.883 86.9469C135.067 85.8917 134.321 83.9314 132.736 83.9314L3.44887 83.9314C1.54411 83.9314 0 82.3856 0 80.4788V3.45268C0 1.54582 1.54411 0 3.44887 0H91.3134C92.0635 0 92.7931 0.244801 93.3917 0.697298L170.257 58.8023C171.393 59.6611 173.02 58.8498 173.02 57.4246V3.45268C173.02 1.54582 174.564 0 176.469 0H289.987C291.892 0 293.436 1.54582 293.436 3.45268V80.4788C293.436 82.3856 291.892 83.9314 289.987 83.9314H176.88C174.975 83.9314 173.431 85.4773 173.431 87.3841V284.547C173.431 286.454 171.887 288 169.982 288H88.1096Z" fill="white"/>
<path d="M1108.97 0C1107.07 0 1105.52 1.54582 1105.52 3.45268V284.547C1105.52 286.454 1107.07 288 1108.97 288H1187.44C1189.35 288 1190.89 286.454 1190.89 284.547V135.321C1190.89 133.712 1192.89 132.978 1193.93 134.206L1322.83 286.777C1323.49 287.553 1324.45 288 1325.46 288H1404.55C1406.46 288 1408 286.454 1408 284.547V234.872C1408 233.888 1407.58 232.95 1406.85 232.295L1351.87 183.221C1350.68 182.165 1351.43 180.206 1353.01 180.206H1404.55C1406.46 180.206 1408 178.66 1408 176.753V3.45268C1408 1.54582 1406.46 0 1404.55 0H1326.08C1324.18 0 1322.63 1.54582 1322.63 3.45268V151.58C1322.63 153.182 1320.64 153.92 1319.6 152.703L1189.87 1.20552C1189.21 0.440361 1188.26 0 1187.25 0H1108.97Z" fill="white"/>
<path d="M305.104 215.589C303.199 215.589 301.655 214.043 301.655 212.136V147.453C301.655 145.546 303.199 144 305.104 144H446.157C448.061 144 449.606 145.546 449.606 147.453V212.136C449.606 214.043 448.061 215.589 446.157 215.589H305.104Z" fill="white"/>
<path d="M558.927 284.547C558.927 286.454 560.471 288 562.376 288H644.249C646.153 288 647.698 286.454 647.698 284.547V87.3841C647.698 85.4773 649.242 83.9314 651.146 83.9314H764.253C766.158 83.9314 767.702 82.3856 767.702 80.4788V3.45268C767.702 1.54582 766.158 0 764.253 0H650.736C648.831 0 647.287 1.54582 647.287 3.45268V57.4246C647.287 58.8498 645.659 59.6611 644.523 58.8023L567.658 0.697298C567.059 0.244801 566.33 0 565.58 0H477.715C475.811 0 474.266 1.54582 474.266 3.45268V80.4788C474.266 82.3856 475.81 83.9314 477.715 83.9314L607.003 83.9314C608.588 83.9314 609.333 85.8917 608.15 86.9469L560.082 129.804C559.347 130.46 558.927 131.398 558.927 132.383V284.547Z" fill="white"/>
<path d="M817.018 284.547C817.018 286.454 818.562 288 820.467 288L898.376 288C900.28 288 901.824 286.454 901.824 284.547V248.112C901.824 246.524 903.786 245.778 904.839 246.966L940.181 286.839C940.836 287.577 941.775 288 942.761 288L1051.93 288C1053.84 288 1055.38 286.454 1055.38 284.547V219.453C1055.38 217.546 1053.84 216 1051.93 216H905.392C903.487 216 901.943 214.454 901.943 212.547V179.544C901.943 177.637 903.487 176.091 905.392 176.091H1004.75C1006.66 176.091 1008.2 174.546 1008.2 172.639V112.07C1008.2 110.163 1006.66 108.617 1004.75 108.617H905.392C903.487 108.617 901.943 107.071 901.943 105.164V75.4527C901.943 73.5458 903.487 72 905.392 72H1044.55C1046.45 72 1048 70.4542 1048 68.5473V3.45268C1048 1.54582 1046.45 0 1044.55 0H820.467C818.562 0 817.018 1.54582 817.018 3.45268V155.111C817.018 155.963 817.332 156.785 817.901 157.419L857.921 202.011C858.919 203.123 858.131 204.891 856.639 204.891H820.467C818.562 204.891 817.018 206.437 817.018 208.344V284.547Z" fill="white"/>
</svg>
