<svg width="59" height="12" viewBox="0 0 59 12" fill="none" xmlns="http://www.w3.org/2000/svg">
<path d="M3.67038 12C3.59104 12 3.52671 11.9356 3.52671 11.8561V5.51595C3.52671 5.4749 3.54422 5.43581 3.57483 5.40852L5.57718 3.62279C5.62648 3.57882 5.59542 3.49714 5.5294 3.49714L0.143669 3.49714C0.064323 3.49714 0 3.43273 0 3.35328V0.143862C0 0.064409 0.0643232 0 0.14367 0H3.80384C3.83509 0 3.86548 0.0102 3.89042 0.0290541L7.09238 2.4501C7.13971 2.48588 7.2075 2.45208 7.2075 2.39269V0.143862C7.2075 0.0644092 7.27183 0 7.35117 0H12.08C12.1593 0 12.2237 0.064409 12.2237 0.143862V3.35328C12.2237 3.43273 12.1593 3.49714 12.08 3.49714H7.36829C7.28895 3.49714 7.22462 3.56155 7.22462 3.641V11.8561C7.22462 11.9356 7.1603 12 7.08095 12H3.67038Z" fill="white"/>
<path d="M46.1964 0C46.1171 0 46.0528 0.064409 46.0528 0.143862V11.8561C46.0528 11.9356 46.1171 12 46.1964 12H49.4652C49.5446 12 49.6089 11.9356 49.6089 11.8561V5.63836C49.6089 5.57134 49.6923 5.54074 49.7356 5.59191L55.1052 11.949C55.1325 11.9814 55.1726 12 55.2149 12H58.5094C58.5887 12 58.6531 11.9356 58.6531 11.8561V9.78635C58.6531 9.74533 58.6356 9.70627 58.605 9.67897L56.3147 7.63419C56.2655 7.59021 56.2965 7.50857 56.3625 7.50857H58.5094C58.5887 7.50857 58.6531 7.44416 58.6531 7.36471V0.143862C58.6531 0.064409 58.5887 0 58.5094 0H55.2406C55.1613 0 55.0969 0.064409 55.0969 0.143862V6.31582C55.0969 6.3826 55.014 6.41334 54.9706 6.36264L49.5664 0.0502302C49.5391 0.0183484 49.4993 0 49.4573 0H46.1964Z" fill="white"/>
<path d="M12.7097 8.98287C12.6303 8.98287 12.566 8.91846 12.566 8.83901V6.14387C12.566 6.06442 12.6303 6.00001 12.7097 6.00001H18.5855C18.6649 6.00001 18.7292 6.06442 18.7292 6.14387V8.83901C18.7292 8.91846 18.6649 8.98287 18.5855 8.98287H12.7097Z" fill="white"/>
<path d="M23.2832 11.8561C23.2832 11.9356 23.3475 12 23.4269 12H26.8375C26.9168 12 26.9811 11.9356 26.9811 11.8561V3.641C26.9811 3.56155 27.0455 3.49714 27.1248 3.49714H31.8365C31.9158 3.49714 31.9802 3.43273 31.9802 3.35328V0.143862C31.9802 0.064409 31.9158 0 31.8365 0H27.1077C27.0283 0 26.964 0.0644092 26.964 0.143862V2.39269C26.964 2.45208 26.8962 2.48588 26.8489 2.4501L23.6469 0.0290541C23.622 0.0102 23.5916 0 23.5604 0H19.9002C19.8208 0 19.7565 0.064409 19.7565 0.143862V3.35328C19.7565 3.43273 19.8208 3.49714 19.9002 3.49714L25.2859 3.49714C25.3519 3.49714 25.383 3.57882 25.3337 3.62279L23.3313 5.40852C23.3007 5.43581 23.2832 5.4749 23.2832 5.51595V11.8561Z" fill="white"/>
<path d="M34.0345 11.8561C34.0345 11.9356 34.0988 12 34.1782 12L37.4236 12C37.503 12 37.5673 11.9356 37.5673 11.8561V10.338C37.5673 10.2718 37.649 10.2408 37.6929 10.2903L39.1651 11.9516C39.1924 11.9824 39.2315 12 39.2726 12L43.8204 12C43.8998 12 43.9641 11.9356 43.9641 11.8561V9.14386C43.9641 9.06441 43.8998 9 43.8204 9H37.7159C37.6366 9 37.5722 8.93559 37.5722 8.85614V7.48101C37.5722 7.40155 37.6366 7.33714 37.7159 7.33714H41.855C41.9344 7.33714 41.9987 7.27273 41.9987 7.19328V4.66958C41.9987 4.59012 41.9344 4.52572 41.855 4.52572H37.7159C37.6366 4.52572 37.5722 4.46131 37.5722 4.38185V3.14386C37.5722 3.06441 37.6366 3 37.7159 3H43.5128C43.5921 3 43.6565 2.93559 43.6565 2.85614V0.143862C43.6565 0.064409 43.5921 0 43.5128 0H34.1782C34.0988 0 34.0345 0.064409 34.0345 0.143862V6.46296C34.0345 6.49846 34.0476 6.5327 34.0713 6.55911L35.7384 8.41714C35.78 8.46344 35.7472 8.53714 35.685 8.53714H34.1782C34.0988 8.53714 34.0345 8.60155 34.0345 8.681V11.8561Z" fill="white"/>
</svg>
