<svg width="284" height="98" viewBox="0 0 284 98" fill="none" xmlns="http://www.w3.org/2000/svg">
<path d="M109.36 73.36C108.808 73.36 108.36 72.9123 108.36 72.36V50C108.36 49.4477 108.808 49 109.36 49H157.76C158.312 49 158.76 49.4477 158.76 50V72.36C158.76 72.9123 158.312 73.36 157.76 73.36H109.36Z" fill="white"/>
<path d="M35.44 98C34.8877 98 34.44 97.5523 34.44 97V44.9685C34.44 44.6832 34.5619 44.4115 34.7749 44.2217L50.3987 30.3068C51.085 29.6955 50.6527 28.56 49.7336 28.56L1 28.56C0.447715 28.56 0 28.1123 0 27.56V1C0 0.447715 0.447715 0 1 0H36.7649C36.9823 0 37.1939 0.0709018 37.3675 0.201959L62.9374 19.5099C63.5962 20.0073 64.54 19.5374 64.54 18.7118V1C64.54 0.447716 64.9877 0 65.54 0H104.56C105.112 0 105.56 0.447716 105.56 1V27.56C105.56 28.1123 105.112 28.56 104.56 28.56H65.68C65.1277 28.56 64.68 29.0077 64.68 29.56V97C64.68 97.5523 64.2323 98 63.68 98H35.44Z" fill="white"/>
<path d="M201.754 50.7553C202.093 50.3794 202.098 49.8095 201.765 49.428L160.206 1.79665C159.642 1.14977 160.101 0.139206 160.96 0.139206H195.211C195.507 0.139206 195.788 0.270491 195.978 0.497681L219.654 28.8074C220.047 29.2779 220.768 29.2866 221.172 28.8258L246.189 0.340126C246.379 0.123937 246.653 0 246.941 0H282.51C283.377 0 283.833 1.0269 283.252 1.67008L251.741 36.5768C251.552 36.7868 251.282 36.9067 250.999 36.9067L232.313 36.9066C231.452 36.9066 230.993 37.9238 231.564 38.5692L240.655 48.8452C240.658 48.8488 240.658 48.8544 240.655 48.858C240.652 48.8616 240.651 48.867 240.655 48.8707L281.483 96.2077C282.042 96.8557 281.582 97.8608 280.726 97.8608H246.331C246.028 97.8608 245.742 97.7236 245.552 97.4877L223.446 70.0138C223.057 69.5303 222.326 69.5143 221.916 69.9802L197.566 97.6605C197.377 97.8763 197.103 98 196.816 98H161.384C160.518 98 160.061 96.9734 160.641 96.3302L201.754 50.7553Z" fill="white"/>
</svg>
